<svg xmlns="http://www.w3.org/2000/svg" width="18.614" height="18.614" viewBox="0 0 18.614 18.614"><defs><style>.a{fill:#65fff9;}</style></defs><g transform="translate(0 0)"><path class="a" d="M9.307,18.614A9.307,9.307,0,0,1,2.726,2.726,9.307,9.307,0,0,1,15.888,15.888a9.246,9.246,0,0,1-6.581,2.726Zm0-17.524A8.216,8.216,0,0,0,3.5,15.117,8.216,8.216,0,1,0,15.117,3.5,8.163,8.163,0,0,0,9.307,1.091Z" transform="translate(0 0)"/></g><g transform="translate(8.762 2.183)"><path class="a" d="M241,60.036h1.091v1.455H241Z" transform="translate(-241 -60.036)"/></g><g transform="translate(12.928 3.885)"><path class="a" d="M0,0H1.455V1.091H0Z" transform="translate(0 1.029) rotate(-45)"/></g><g transform="translate(14.976 8.762)"><path class="a" d="M411.932,241h1.455v1.091h-1.455Z" transform="translate(-411.932 -241)"/></g><g transform="translate(12.927 12.93)"><path class="a" d="M0,0H1.091V1.455H0Z" transform="translate(0 0.771) rotate(-45)"/></g><g transform="translate(8.762 14.976)"><path class="a" d="M241,411.932h1.091v1.455H241Z" transform="translate(-241 -411.932)"/></g><g transform="translate(3.882 12.929)"><path class="a" d="M0,0H1.455V1.091H0Z" transform="translate(0 1.029) rotate(-45)"/></g><g transform="translate(2.183 8.762)"><path class="a" d="M60.036,241h1.455v1.091H60.036Z" transform="translate(-60.036 -241)"/></g><g transform="translate(3.883 3.884)"><path class="a" d="M0,0H1.091V1.455H0Z" transform="translate(0 0.771) rotate(-45)"/></g><g transform="translate(8.762 5.457)"><path class="a" d="M245.4,154.5H241v-4.4h1.091v3.3h3.3Z" transform="translate(-241 -150.108)"/></g></svg>