<svg xmlns="http://www.w3.org/2000/svg" width="32.053" height="32.059" viewBox="0 0 32.053 32.059"><g transform="translate(-0.449)"><path d="M32.42,9.425a11.714,11.714,0,0,0-.745-3.889A8.212,8.212,0,0,0,26.984.845,11.744,11.744,0,0,0,23.1.1C21.379.019,20.834,0,16.482,0s-4.9.019-6.607.094A11.718,11.718,0,0,0,5.986.839,7.822,7.822,0,0,0,3.142,2.693,7.893,7.893,0,0,0,1.295,5.53,11.746,11.746,0,0,0,.55,9.419c-.081,1.716-.1,2.261-.1,6.614s.019,4.9.094,6.607a11.714,11.714,0,0,0,.745,3.889A8.211,8.211,0,0,0,5.979,31.22a11.746,11.746,0,0,0,3.889.745c1.71.075,2.255.094,6.607.094s4.9-.019,6.607-.094a11.711,11.711,0,0,0,3.889-.745,8.2,8.2,0,0,0,4.691-4.691,11.754,11.754,0,0,0,.745-3.889c.075-1.71.094-2.255.094-6.607S32.5,11.135,32.42,9.425ZM29.533,22.514a8.787,8.787,0,0,1-.551,2.975,5.318,5.318,0,0,1-3.044,3.044,8.818,8.818,0,0,1-2.975.551c-1.691.075-2.2.094-6.476.094s-4.791-.019-6.476-.094a8.783,8.783,0,0,1-2.975-.551,4.933,4.933,0,0,1-1.841-1.2A4.984,4.984,0,0,1,4,25.5a8.82,8.82,0,0,1-.551-2.975c-.075-1.691-.094-2.2-.094-6.476s.019-4.791.094-6.476A8.783,8.783,0,0,1,4,6.595,4.873,4.873,0,0,1,5.2,4.753a4.977,4.977,0,0,1,1.841-1.2,8.824,8.824,0,0,1,2.975-.551c1.691-.075,2.2-.094,6.476-.094s4.791.019,6.476.094a8.787,8.787,0,0,1,2.975.551,4.93,4.93,0,0,1,1.841,1.2,4.983,4.983,0,0,1,1.2,1.841,8.823,8.823,0,0,1,.551,2.975c.075,1.691.094,2.2.094,6.476S29.609,20.824,29.533,22.514Zm0,0" transform="translate(0 0)"/><path d="M133.185,124.5a8.235,8.235,0,1,0,8.235,8.235A8.238,8.238,0,0,0,133.185,124.5Zm0,13.578a5.342,5.342,0,1,1,5.342-5.342A5.343,5.343,0,0,1,133.185,138.078Zm0,0" transform="translate(-116.703 -116.703)"/><path d="M366.295,90.524a1.923,1.923,0,1,1-1.923-1.923A1.923,1.923,0,0,1,366.295,90.524Zm0,0" transform="translate(-339.329 -83.053)"/></g></svg>