<svg xmlns="http://www.w3.org/2000/svg" width="16.489" height="16.523" viewBox="0 0 16.489 16.523"><g transform="translate(-0.539)"><g transform="translate(0.539 0)"><path d="M16.6,12.127,14.29,9.821a1.534,1.534,0,0,0-2.553.576,1.569,1.569,0,0,1-1.812.988A7.111,7.111,0,0,1,5.643,7.1a1.493,1.493,0,0,1,.988-1.812,1.534,1.534,0,0,0,.576-2.553L4.9.432a1.645,1.645,0,0,0-2.224,0L1.113,2c-1.565,1.647.165,6.012,4.035,9.882s8.235,5.682,9.882,4.035L16.6,14.35A1.645,1.645,0,0,0,16.6,12.127Z" transform="translate(-0.539 0)"/></g></g></svg>